<?xml version="1.0" encoding="UTF-8"?>
<svg id="Layer_1" data-name="Layer 1" xmlns="http://www.w3.org/2000/svg" viewBox="0 0 28.06 28.06">
  <defs>
    <style>
      .cls-1 {
        fill: #010101;
      }
    </style>
  </defs>
  <path class="cls-1" d="M28.06,22.74V5.32c0-1.41-.56-2.77-1.56-3.76C25.51,.56,24.15,0,22.74,0h-7.74V2.9h7.74c.64,0,1.26,.26,1.71,.71,.45,.45,.71,1.07,.71,1.71V22.74c0,.64-.25,1.26-.71,1.71-.45,.45-1.07,.71-1.71,.71H5.32c-.64,0-1.26-.25-1.71-.71-.45-.45-.71-1.07-.71-1.71v-7.74H0v7.74C0,24.15,.56,25.51,1.56,26.5c1,1,2.35,1.56,3.76,1.56H22.74c1.41,0,2.77-.56,3.76-1.56,1-1,1.56-2.35,1.56-3.76h0Z"/>
  <path class="cls-1" d="M0,5.32V22.74C0,24.15,.56,25.51,1.56,26.5c1,1,2.35,1.56,3.76,1.56h7.74v-2.9H5.32c-.64,0-1.26-.26-1.71-.71-.45-.45-.71-1.07-.71-1.71V5.32c0-.64,.25-1.26,.71-1.71,.45-.45,1.07-.71,1.71-.71H22.74c.64,0,1.26,.25,1.71,.71,.45,.45,.71,1.07,.71,1.71v7.74h2.9V5.32c0-1.41-.56-2.77-1.56-3.76C25.51,.56,24.15,0,22.74,0H5.32C3.91,0,2.56,.56,1.56,1.56,.56,2.56,0,3.91,0,5.32H0Z"/>
  <path class="cls-1" d="M23.05,14.03c0,.77-.73,1.41-1.68,1.49h-.22s-14.24,.01-14.24,.01c-1.05,0-1.9-.67-1.9-1.5,0-.77,.73-1.41,1.68-1.49h.22s14.24-.01,14.24-.01c1.05,0,1.9,.67,1.9,1.5Z"/>
  <path class="cls-1" d="M14.03,23.05c-.77,0-1.41-.73-1.49-1.68v-.22s-.01-14.24-.01-14.24c0-1.05,.67-1.9,1.5-1.9,.77,0,1.41,.73,1.49,1.68v.22s.01,14.24,.01,14.24c0,1.05-.67,1.9-1.5,1.9Z"/>
</svg>