<?xml version="1.0" encoding="UTF-8"?>
<svg id="Layer_1" data-name="Layer 1" xmlns="http://www.w3.org/2000/svg" viewBox="0 0 30 28.43">
  <defs>
    <style>
      .cls-1 {
        fill: #010101;
      }
    </style>
  </defs>
  <path class="cls-1" d="M29.99,3.88v-.08c0-.05-.02-.11-.04-.16v-.05l-1.12-2.95h0c-.14-.39-.5-.65-.92-.65H2.08c-.41,0-.78,.27-.92,.65L.04,3.6v.05H.04c-.02,.05-.03,.1-.04,.16v2.96c0,.54,.44,.98,.98,.98h.65c.03,.37,.08,.74,.15,1.1l1.77,18.69c.05,.49,.45,.88,.95,.89H25.46c.51,0,.93-.39,.98-.89l1.77-18.69c.07-.36,.12-.73,.15-1.1h.65c.54,0,.98-.44,.98-.98V3.95s0-.05,0-.07h0Zm-1.96,1.9H1.94s0-.84,0-.84H28.04v.84ZM3.64,7.75h4.52v2.62h0c0,.54,.44,.98,.98,.98s.98-.44,.98-.98v-2.62h.79v1.14c0,.54,.44,.98,.98,.98s.98-.44,.98-.98v-1.14h6.87v3.56c0,.54,.44,.98,.98,.98s.98-.44,.98-.98v-3.56h4.58l-.05,.58c-.89,5.08-6.25,7.42-11.26,7.42S4.62,13.41,3.7,8.33l-.06-.59ZM2.75,1.99H27.22l.37,.98H2.38l.37-.98ZM24.55,26.47H5.42l-1.22-12.85c2.62,2.78,6.79,4.09,10.78,4.09s8.18-1.31,10.78-4.1l-1.22,12.85Z"/>
</svg>