<?xml version="1.0" encoding="UTF-8"?>
<svg id="Layer_1" data-name="Layer 1" xmlns="http://www.w3.org/2000/svg" viewBox="0 0 29.92 32.04">
  <defs>
    <style>
      .cls-1 {
        fill: #010101;
      }
    </style>
  </defs>
  <path class="cls-1" d="M25.23,3.41v-.5C25.23,1.29,23.94,0,22.32,0h-2.2C18.49,0,17.21,1.29,17.21,2.91v.46h-4.45v-.46c0-1.62-1.29-2.91-2.91-2.91h-2.2c-1.62,0-2.91,1.29-2.91,2.91v.5C2.04,3.78,0,6.07,0,8.77V26.64c0,2.99,2.41,5.4,5.4,5.4H24.52c2.99,0,5.4-2.41,5.4-5.4V8.77c0-2.7-2.04-4.99-4.7-5.36h0Zm-5.53-.46c0-.25,.17-.42,.42-.42h2.2c.25,0,.42,.17,.42,.42v.46h-.04v2.49h.04v.08h-3.03s0-3.03,0-3.03h0Zm-12.05-.42h2.2c.25,0,.42,.17,.42,.42v3.03h-3.03V2.95c0-.25,.17-.42,.42-.42h0Zm-2.91,3.41c0,1.37,1.12,2.49,2.49,2.49h3.03c1.37,0,2.49-1.12,2.49-2.49v-.08h4.45v.08c0,1.37,1.12,2.49,2.49,2.49h3.03c1.37,0,2.49-1.12,2.49-2.49,1.29,.33,2.2,1.5,2.2,2.83v1.25H2.49v-1.25c0-1.33,.91-2.49,2.24-2.83h0ZM24.52,29.55H5.4c-1.62,0-2.91-1.29-2.91-2.91V12.51H27.43v14.13c0,1.62-1.29,2.91-2.91,2.91h0Z"/>
</svg>