<?xml version="1.0" encoding="UTF-8"?>
<svg id="Layer_1" data-name="Layer 1" xmlns="http://www.w3.org/2000/svg" viewBox="0 0 26.11 28.05">
  <defs>
    <style>
      .cls-1 {
        fill: #010101;
      }
    </style>
  </defs>
  <path class="cls-1" d="M23.61,23.43V6.63c0-.19,.15-.34,.34-.34h1.81c.19,0,.35-.16,.35-.35v-1.41c0-.19-.16-.35-.35-.35h-5.92c-.2,0-.36-.16-.36-.36v-.63C19.48,1.41,18.07,0,16.3,0h-6.49c-1.76,0-3.18,1.41-3.18,3.18v.61c0,.21-.17,.37-.37,.37H.35c-.19,0-.35,.16-.35,.35v1.41c0,.19,.16,.35,.35,.35h1.81c.19,0,.34,.15,.34,.34V23.47c0,2.53,2.05,4.59,4.59,4.59h11.93c2.5-.04,4.59-2.08,4.59-4.62h0ZM8.75,3.18c0-.6,.46-1.06,1.06-1.06h6.46c.6,0,1.06,.46,1.06,1.06v.99H8.75s0-.99,0-.99ZM4.62,23.43V6.28H21.49V23.47c0,1.38-1.09,2.47-2.47,2.47H7.09c-1.34-.04-2.47-1.13-2.47-2.51h0Z"/>
  <path class="cls-1" d="M12.35,9.63h1.41c.2,0,.36,.16,.36,.36v11.96c0,.2-.16,.36-.36,.36h-1.41c-.2,0-.36-.16-.36-.36V9.99c0-.2,.16-.36,.36-.36Z"/>
  <path class="cls-1" d="M16.22,9.63h1.44c.19,0,.34,.15,.34,.34v11.99c0,.19-.15,.34-.34,.34h-1.44c-.19,0-.34-.15-.34-.34V9.97c0-.19,.15-.34,.34-.34Z"/>
  <path class="cls-1" d="M8.46,9.63h1.43c.19,0,.34,.15,.34,.34v11.98c0,.19-.15,.34-.34,.34h-1.43c-.19,0-.34-.15-.34-.34V9.98c0-.19,.15-.34,.34-.34Z"/>
</svg>