<?xml version="1.0" encoding="UTF-8"?>
<svg id="Layer_1" data-name="Layer 1" xmlns="http://www.w3.org/2000/svg" viewBox="0 0 30 30">
  <defs>
    <style>
      .cls-1 {
        fill: #010101;
      }
    </style>
  </defs>
  <path class="cls-1" d="M24.44,0c-1.47,0-2.89,.58-3.93,1.63L10.44,11.7c-1.73,1.72-2.7,4.06-2.69,6.5v4.05h4.05c2.44,0,4.78-.96,6.5-2.69l10.08-10.07c1.04-1.04,1.63-2.46,1.63-3.93,0-1.47-.59-2.89-1.63-3.93C27.33,.59,25.91,0,24.44,0h0Zm1.88,7.43l-10.07,10.08c-1.18,1.18-2.78,1.85-4.45,1.84h-1.15v-1.15c0-1.67,.66-3.27,1.84-4.45L22.57,3.68c.68-.64,1.64-.87,2.53-.62,.89,.25,1.59,.95,1.84,1.84,.25,.89,.01,1.85-.62,2.53h0Z"/>
  <path class="cls-1" d="M5.32,30H22.74c1.41,0,2.77-.56,3.76-1.56,1-1,1.56-2.35,1.56-3.76v-7.74h-2.9v7.74c0,.64-.26,1.26-.71,1.71-.45,.45-1.07,.71-1.71,.71H5.32c-.64,0-1.26-.25-1.71-.71-.45-.45-.71-1.07-.71-1.71V7.26c0-.64,.25-1.26,.71-1.71,.45-.45,1.07-.71,1.71-.71h7.74V1.94H5.32c-1.41,0-2.77,.56-3.76,1.56-1,1-1.56,2.35-1.56,3.76V24.68c0,1.41,.56,2.77,1.56,3.76,1,1,2.35,1.56,3.76,1.56h0Z"/>
</svg>