<?xml version="1.0" encoding="UTF-8"?>
<svg id="Layer_1" data-name="Layer 1" xmlns="http://www.w3.org/2000/svg" viewBox="0 0 30 23.92">
  <defs>
    <style>
      .cls-1 {
        fill: #010101;
      }
    </style>
  </defs>
  <path class="cls-1" d="M9.82,.03c-.73,0-1.32,.64-1.32,1.44v2.89c0,.8,.59,1.44,1.32,1.44H28.68c.73,0,1.32-.64,1.32-1.44V1.47c0-.8-.59-1.44-1.32-1.44H9.82Z"/>
  <path class="cls-1" d="M9.82,9.09c-.73,0-1.32,.64-1.32,1.44v2.89c0,.8,.59,1.44,1.32,1.44H28.68c.73,0,1.32-.64,1.32-1.44v-2.89c0-.8-.59-1.44-1.32-1.44H9.82Z"/>
  <path class="cls-1" d="M9.82,18.15c-.73,0-1.32,.64-1.32,1.44v2.89c0,.8,.59,1.44,1.32,1.44H28.68c.73,0,1.32-.64,1.32-1.44v-2.89c0-.8-.59-1.44-1.32-1.44H9.82Z"/>
  <path class="cls-1" d="M2.89,18.15c-.76,0-1.5,.3-2.04,.84-.54,.54-.84,1.27-.84,2.04s.3,1.5,.85,2.04c.54,.54,1.27,.85,2.04,.84,1.59,0,2.89-1.29,2.89-2.88,0-.77-.3-1.5-.84-2.04-.54-.54-1.28-.84-2.04-.84h0Z"/>
  <path class="cls-1" d="M2.89,9.09c-.76,0-1.5,.3-2.04,.84-.54,.54-.84,1.27-.84,2.04s.3,1.5,.85,2.04c.54,.54,1.27,.84,2.04,.84,1.59,0,2.89-1.29,2.89-2.88,0-.77-.3-1.5-.84-2.04-.54-.54-1.28-.84-2.04-.84h0Z"/>
  <path class="cls-1" d="M2.89,.03C2.12,.03,1.39,.33,.85,.87,.3,1.41,0,2.15,0,2.91s.3,1.5,.84,2.04c.54,.54,1.28,.84,2.04,.84s1.5-.3,2.04-.85c.54-.54,.84-1.27,.84-2.04,0-1.59-1.29-2.88-2.89-2.88h0Z"/>
</svg>