<?xml version="1.0" encoding="UTF-8"?>
<svg id="Layer_1" data-name="Layer 1" xmlns="http://www.w3.org/2000/svg" viewBox="0 0 40 31.86">
  <defs>
    <style>
      .cls-1 {
        fill: #010101;
      }
    </style>
  </defs>
  <path class="cls-1" d="M13.09,0C12.12,0,11.33,.86,11.33,1.92v3.86c0,1.06,.79,1.92,1.76,1.92h25.15c.97,0,1.76-.86,1.76-1.92V1.92C40,.86,39.21,0,38.24,0H13.09Z"/>
  <path class="cls-1" d="M13.09,12.09c-.97,0-1.76,.85-1.76,1.92v3.86c0,1.06,.79,1.92,1.76,1.92h25.15c.97,0,1.76-.85,1.76-1.92v-3.86c0-1.06-.79-1.92-1.76-1.92H13.09Z"/>
  <path class="cls-1" d="M13.09,24.17c-.97,0-1.76,.86-1.76,1.92v3.86c0,1.06,.79,1.92,1.76,1.92h25.15c.97,0,1.76-.85,1.76-1.92v-3.86c0-1.06-.79-1.92-1.76-1.92H13.09Z"/>
  <path class="cls-1" d="M3.85,24.17c-1.02,0-2,.41-2.72,1.13C.41,26.02,0,27,0,28.02s.41,2,1.13,2.72c.72,.72,1.7,1.13,2.72,1.13,2.12,0,3.85-1.72,3.85-3.84,0-1.02-.41-2-1.13-2.72-.72-.72-1.7-1.13-2.72-1.13h0Z"/>
  <path class="cls-1" d="M3.85,12.09c-1.02,0-2,.4-2.72,1.13C.41,13.93,0,14.91,0,15.93s.41,2,1.13,2.72c.72,.72,1.7,1.13,2.72,1.13,2.12,0,3.85-1.72,3.85-3.84,0-1.02-.41-2-1.13-2.72-.72-.72-1.7-1.13-2.72-1.13h0Z"/>
  <path class="cls-1" d="M3.85,0C2.83,0,1.85,.41,1.13,1.13,.41,1.85,0,2.83,0,3.85s.41,2,1.13,2.72c.72,.72,1.7,1.13,2.72,1.13s2-.41,2.72-1.13c.72-.72,1.13-1.7,1.13-2.72,0-2.12-1.72-3.85-3.85-3.85h0Z"/>
</svg>