<?xml version="1.0" encoding="UTF-8"?>
<svg id="Layer_1" data-name="Layer 1" xmlns="http://www.w3.org/2000/svg" viewBox="0 0 23.49 32.04">
  <defs>
    <style>
      .cls-1 {
        fill: #010101;
      }
    </style>
  </defs>
  <path class="cls-1" d="M11.74,6.41c-2.93,0-5.32,2.39-5.32,5.32s2.39,5.32,5.32,5.32,5.32-2.39,5.32-5.32-2.39-5.32-5.32-5.32Zm0,8.56c-1.78,0-3.23-1.45-3.23-3.23s1.45-3.23,3.23-3.23,3.23,1.45,3.23,3.23-1.45,3.23-3.23,3.23Z"/>
  <path class="cls-1" d="M11.74,0C5.27,0,0,5.27,0,11.74S10.48,31.09,10.92,31.65c.2,.25,.5,.4,.82,.4s.62-.14,.82-.4c.44-.56,10.92-13.7,10.92-19.9S18.22,0,11.74,0h0Zm0,29.29C8.44,25,2.1,15.91,2.1,11.74,2.1,6.42,6.43,2.09,11.74,2.09s9.65,4.33,9.65,9.65c0,4.17-6.35,13.27-9.65,17.55Z"/>
</svg>