<?xml version="1.0" encoding="UTF-8"?>
<svg id="Layer_1" data-name="Layer 1" xmlns="http://www.w3.org/2000/svg" viewBox="0 0 40 35.98">
  <defs>
    <style>
      .cls-1 {
        fill: #010101;
      }
    </style>
  </defs>
  <path class="cls-1" d="M25,3.84l-10,3.75v24.55l10-3.75V3.84Zm3.33,0V28.39l8.33,3.12V6.97l-8.33-3.12ZM11.67,7.59L3.33,4.47V29.01l8.33,3.12V7.59ZM0,1.33C0,.41,.7-.08,1.56,.24l10.22,3.83c.86,.32,2.25,.32,3.11,0L25.11,.24c.86-.32,2.25-.32,3.11,0l10.22,3.83c.86,.32,1.56,1.33,1.56,2.25v28.33c0,.92-.7,1.41-1.56,1.09l-10.22-3.83c-.86-.32-2.25-.32-3.11,0l-10.22,3.83c-.86,.32-2.25,.32-3.11,0L1.56,31.91C.7,31.59,0,30.57,0,29.66V1.33Z"/>
</svg>