<?xml version="1.0" encoding="UTF-8"?>
<svg id="Layer_1" data-name="Layer 1" xmlns="http://www.w3.org/2000/svg" viewBox="0 0 30 26.99">
  <defs>
    <style>
      .cls-1 {
        fill: #010101;
      }
    </style>
  </defs>
  <path class="cls-1" d="M18.75,2.88l-7.5,2.81V24.1l7.5-2.81V2.88Zm2.5,0V21.29l6.25,2.34V5.23l-6.25-2.34Zm-12.5,2.81L2.5,3.35V21.76l6.25,2.34V5.69ZM0,1C0,.3,.52-.06,1.17,.18l7.67,2.87c.64,.24,1.69,.24,2.33,0L18.83,.18c.64-.24,1.69-.24,2.33,0l7.67,2.87c.64,.24,1.17,1,1.17,1.69V25.99c0,.69-.52,1.06-1.17,.81l-7.67-2.87c-.64-.24-1.69-.24-2.33,0l-7.67,2.87c-.64,.24-1.69,.24-2.33,0l-7.67-2.87C.52,23.69,0,22.93,0,22.24V1Z"/>
</svg>