<?xml version="1.0" encoding="UTF-8"?>
<svg id="Layer_1" data-name="Layer 1" xmlns="http://www.w3.org/2000/svg" viewBox="0 0 40 40">
  <defs>
    <style>
      .cls-1 {
        fill: #010101;
      }
    </style>
  </defs>
  <path class="cls-1" d="M20,40c11.03,0,20-8.97,20-20S31.03,0,20,0,0,8.97,0,20s8.97,20,20,20Zm-11.03-7.37c3.02-3.61,6.95-5.57,11.03-5.57s8.01,1.96,11.03,5.57c-2.92,2.6-6.79,4.19-11.03,4.19s-8.12-1.59-11.03-4.19ZM20,3.18c9.28,0,16.82,7.53,16.82,16.82,0,3.87-1.33,7.48-3.55,10.29-3.66-4.14-8.28-6.42-13.26-6.42s-9.6,2.28-13.26,6.42c-2.23-2.86-3.55-6.42-3.55-10.29C3.18,10.72,10.72,3.18,20,3.18h0Z"/>
  <path class="cls-1" d="M20,22.28c4.46,0,8.06-3.61,8.06-8.06s-3.61-8.06-8.06-8.06-8.06,3.61-8.06,8.06,3.61,8.06,8.06,8.06Zm0-12.94c2.71,0,4.88,2.18,4.88,4.88s-2.18,4.88-4.88,4.88-4.88-2.18-4.88-4.88,2.18-4.88,4.88-4.88h0Z"/>
</svg>