<?xml version="1.0" encoding="UTF-8"?>
<svg id="Layer_1" data-name="Layer 1" xmlns="http://www.w3.org/2000/svg" viewBox="0 0 30 30">
  <defs>
    <style>
      .cls-1 {
        fill: #010101;
      }
    </style>
  </defs>
  <path class="cls-1" d="M15,30c8.28,0,15-6.72,15-15S23.28,0,15,0,0,6.72,0,15s6.72,15,15,15Zm-8.28-5.53c2.27-2.71,5.21-4.18,8.28-4.18s6.01,1.47,8.28,4.18c-2.19,1.95-5.09,3.14-8.28,3.14s-6.09-1.19-8.28-3.14ZM15,2.39c6.96,0,12.61,5.65,12.61,12.61,0,2.9-.99,5.61-2.67,7.72-2.75-3.1-6.21-4.81-9.95-4.81s-7.2,1.71-9.95,4.81c-1.67-2.15-2.67-4.81-2.67-7.72C2.39,8.04,8.04,2.39,15,2.39h0Z"/>
  <path class="cls-1" d="M15,16.71c3.34,0,6.05-2.71,6.05-6.05s-2.71-6.05-6.05-6.05-6.05,2.71-6.05,6.05,2.71,6.05,6.05,6.05Zm0-9.71c2.03,0,3.66,1.63,3.66,3.66s-1.63,3.66-3.66,3.66-3.66-1.63-3.66-3.66,1.63-3.66,3.66-3.66h0Z"/>
</svg>