<?xml version="1.0" encoding="UTF-8"?>
<svg id="Layer_1" data-name="Layer 1" xmlns="http://www.w3.org/2000/svg" viewBox="0 0 27.77 28.02">
  <defs>
    <style>
      .cls-1 {
        fill: #231f20;
      }
    </style>
  </defs>
  <path class="cls-1" d="M27.18,16.6l-2.24-1.29c.06-.43,.1-.85,.1-1.3s-.05-.89-.1-1.31l2.25-1.3c.55-.33,.75-1.07,.43-1.63l-3.2-5.54c-.31-.55-1.08-.76-1.63-.44l-2.25,1.31c-.7-.53-1.46-.97-2.25-1.31V1.19c0-.64-.56-1.19-1.19-1.19h-6.41c-.68,0-1.17,.63-1.19,1.19V3.79c-.79,.34-1.54,.78-2.25,1.31l-2.26-1.31c-.55-.31-1.31-.1-1.62,.45L.15,9.77c-.31,.55-.11,1.3,.43,1.63l2.24,1.29c-.06,.42-.1,.86-.1,1.31s.05,.88,.1,1.3l-2.24,1.29c-.27,.15-.46,.42-.55,.73-.08,.31-.04,.64,.12,.9l3.2,5.54c.33,.55,1.07,.75,1.63,.43l2.24-1.29c.69,.51,1.44,.95,2.26,1.3v2.6c0,.64,.56,1.19,1.19,1.19h6.41c.64,0,1.19-.56,1.19-1.19v-2.6c.81-.35,1.57-.79,2.26-1.3l2.25,1.3c.56,.32,1.3,.12,1.63-.43l3.2-5.53c.16-.26,.2-.59,.12-.91-.08-.31-.28-.58-.55-.73Zm-16.11,5.71c-1.09-.37-2.11-.96-2.97-1.72-.38-.33-.94-.39-1.38-.15l-1.9,1.09-2.01-3.47,1.89-1.09c.44-.25,.68-.77,.58-1.27-.11-.57-.17-1.14-.17-1.71s.06-1.15,.17-1.72c.1-.5-.14-1.02-.58-1.27l-1.89-1.09,2.01-3.47,1.9,1.09c.43,.25,1,.2,1.38-.13,.87-.77,1.9-1.37,2.98-1.73,.47-.16,.8-.62,.8-1.12V2.39h4.02v2.18c0,.5,.33,.96,.81,1.12,1.07,.36,2.1,.96,2.98,1.73,.38,.33,.95,.38,1.38,.13l1.9-1.09,2.01,3.47-1.89,1.09c-.44,.25-.68,.77-.58,1.27,.11,.57,.17,1.15,.17,1.72s-.06,1.14-.17,1.71c-.1,.5,.14,1.02,.58,1.27l1.89,1.09-2.01,3.47-1.9-1.1c-.44-.25-1-.18-1.38,.15-.86,.76-1.89,1.35-2.98,1.72-.48,.17-.81,.63-.8,1.13v2.17h-4.02v-2.17c0-.51-.32-.97-.81-1.14Z"/>
  <path class="cls-1" d="M20.42,14.01c0-3.6-2.93-6.53-6.53-6.53s-6.53,2.93-6.53,6.53,2.93,6.53,6.53,6.53,6.53-2.93,6.53-6.53Zm-6.53-4.14c2.28,0,4.14,1.86,4.14,4.14s-1.86,4.14-4.14,4.14-4.14-1.86-4.14-4.14,1.86-4.14,4.14-4.14Z"/>
</svg>