<?xml version="1.0" encoding="UTF-8"?>
<svg id="Layer_1" data-name="Layer 1" xmlns="http://www.w3.org/2000/svg" viewBox="0 0 30 30">
  <defs>
    <style>
      .cls-1 {
        fill: #010101;
      }
    </style>
  </defs>
  <path class="cls-1" d="M30,11C30,4.93,25.07,0,19,0c-4.93,0-9.25,3.32-10.58,8H1c-.55,0-1,.45-1,1V29c0,.55,.45,1,1,1H21c.55,0,1-.45,1-1v-7.42c4.68-1.33,8-5.65,8-10.58Zm-10,17H2V10H20V28Zm2-8.52V9c0-.55-.45-1-1-1H10.52c1.26-3.54,4.64-6,8.48-6,4.96,0,9,4.04,9,9,0,3.84-2.46,7.22-6,8.48Z"/>
</svg>